# xmcd
#
# Track frame offsets:
# 150
# 23011
# 51190
# 68591
# 86516
# 104663
# 124563
# 146926
# 168035
# 196169
# 211219
# 230700
# 246571
# 267695
# 285661
#
# Disc length: 4329 seconds
#
#
# Revision: 0
# Processed by: cddbd v1.5.2PL0 Copyright (c) Steve Scherf et al.
# Submitted via: FreeRIP 2.951 
#
DISCID=df10e70f
DTITLE=Prince - Soft Hits
DYEAR=1900
DGENRE=Blues
TTITLE0=The Arms Of Orion
TTITLE1=Scandalous
TTITLE2=Graffity Bridge
TTITLE3=Morning Paper
TTITLE4=Sweet Baby
TTITLE5=Damn U
TTITLE6=Nothing Compares 2U
TTITLE7=Adore
TTITLE8=Pink Cashmere
TTITLE9=Thieves On The Temple
TTITLE10=Diamond And Pearls
TTITLE11=Betcha By Golly Wow
TTITLE12=Gold
TTITLE13=Do Me Baby
TTITLE14=Purple rain
EXTD=
EXTT0=
EXTT1=
EXTT2=
EXTT3=
EXTT4=
EXTT5=
EXTT6=
EXTT7=
EXTT8=
EXTT9=
EXTT10=
EXTT11=
EXTT12=
EXTT13=
EXTT14=
PLAYORDER=
